<?xml version="1.0" encoding="utf-8"?>
<!-- Generator: Adobe Illustrator 19.2.1, SVG Export Plug-In . SVG Version: 6.00 Build 0)  -->
<svg version="1.1" id="Layer_1" xmlns="http://www.w3.org/2000/svg" xmlns:xlink="http://www.w3.org/1999/xlink" x="0px" y="0px"
	 viewBox="0 0 249 56" style="enable-background:new 0 0 249 56;" xml:space="preserve">
<g>
	<path d="M90.9,15.8c0.6,0,1.1-0.2,1.5-0.6c0.4-0.4,0.6-0.9,0.6-1.5c0,0,0,0,0-0.1c0-0.5-0.2-1-0.6-1.4c-0.4-0.4-0.9-0.6-1.5-0.6h0
		c-2.6,0-4.5,0.7-5.9,2c-1.3,1.2-2,2.9-2.1,5.1h-0.1c-0.6,0-1.1,0.2-1.5,0.6c-0.4,0.4-0.6,0.9-0.6,1.5c0,0.6,0.2,1.1,0.6,1.5
		c0.4,0.4,0.9,0.6,1.5,0.6h0.1v15.2c0,0.6,0.2,1.1,0.6,1.5c0.4,0.4,0.9,0.6,1.5,0.6c0.4,0,0.7-0.1,1-0.2c0.2-0.1,0.3-0.2,0.5-0.3
		c0.4-0.4,0.6-0.9,0.6-1.5V22.8h1.6c0.6,0,1.1-0.2,1.5-0.6c0.4-0.4,0.6-0.9,0.6-1.5c0-0.6-0.2-1.1-0.6-1.5c-0.4-0.4-0.9-0.6-1.5-0.6
		H87c0.1-1,0.3-1.6,0.8-2.1C88.4,16.1,89.4,15.8,90.9,15.8z"/>
	<path d="M109.9,18.7c-0.2,0-0.4,0-0.5,0.1c-0.3,0.1-0.7,0.3-0.9,0.5c-0.4,0.4-0.6,0.9-0.6,1.5v0.1c-1.9-1.5-4-2.2-6.4-2.2
		c-1.2,0-2.4,0.2-3.5,0.6c-1.5,0.5-2.8,1.4-4,2.6c-2.1,2.1-3.1,4.6-3.1,7.6c0,2.9,1,5.5,3.1,7.6c1.2,1.2,2.5,2,4,2.6
		c1.1,0.4,2.2,0.6,3.5,0.6c2.4,0,4.5-0.7,6.4-2.2v0.2c0,0.6,0.2,1.1,0.6,1.5c0.3,0.3,0.6,0.4,0.9,0.5c0.2,0,0.3,0.1,0.5,0.1
		c0.6,0,1.1-0.2,1.5-0.6c0.4-0.4,0.6-0.9,0.6-1.5V20.8c0-0.6-0.2-1.1-0.6-1.5C111,18.9,110.5,18.7,109.9,18.7z M106,34.1
		c-1.2,1.3-2.8,1.9-4.5,1.9c-1.3,0-2.4-0.4-3.5-1c-0.4-0.2-0.7-0.5-1.1-0.9c-1.3-1.3-1.9-2.8-1.9-4.6c0-1.8,0.6-3.4,1.9-4.7
		c0.3-0.3,0.7-0.6,1.1-0.9c1-0.7,2.2-1,3.5-1c1.8,0,3.3,0.6,4.5,1.9c1.2,1.3,1.9,2.9,1.9,4.7C107.8,31.2,107.2,32.8,106,34.1z"/>
	<path d="M124.9,22.8c2.2,0,3.9,0.9,5.2,2.7c0.3,0.4,0.7,0.7,1.1,0.8c0.1,0,0.1,0,0.2,0.1c0.6,0.1,1.1,0,1.5-0.4
		c0.5-0.3,0.7-0.8,0.8-1.3c0-0.1,0-0.3,0-0.4c0-0.4-0.1-0.8-0.4-1.2c-0.7-0.9-1.4-1.7-2.2-2.3c-1.8-1.4-3.9-2.1-6.3-2.1
		c-2.9,0-5.4,1.1-7.4,3.2c-0.2,0.2-0.3,0.4-0.5,0.6c-1.7,2-2.6,4.3-2.6,7c0,2.7,0.9,5,2.6,7c0.2,0.2,0.3,0.4,0.5,0.6
		c2,2.1,4.5,3.1,7.4,3.1c2.4,0,4.5-0.7,6.3-2.1c0.8-0.6,1.6-1.4,2.2-2.3c0.3-0.4,0.4-0.7,0.4-1.2c0-0.1,0-0.3,0-0.4
		c-0.1-0.6-0.4-1-0.8-1.3c-0.4-0.3-0.7-0.4-1.2-0.4c-0.1,0-0.3,0-0.4,0c-0.1,0-0.2,0-0.2,0.1c-0.5,0.1-0.8,0.4-1.1,0.8
		c-1.3,1.8-3,2.7-5.2,2.7c-1.8,0-3.3-0.6-4.5-1.9c-1.3-1.3-1.9-2.8-1.9-4.6c0-1.8,0.6-3.4,1.9-4.7C121.6,23.5,123.2,22.8,124.9,22.8
		z"/>
	<path d="M180.7,12.3c-0.4-0.4-0.9-0.6-1.5-0.6c-0.6,0-1.1,0.2-1.5,0.6c-0.4,0.4-0.6,0.9-0.6,1.5v7.2c-1.9-1.5-4-2.2-6.4-2.2
		c-2.9,0-5.4,1.1-7.4,3.2c-0.2,0.2-0.4,0.4-0.6,0.6c-1.7,2-2.5,4.3-2.5,6.9c0,2.6,0.9,5,2.5,6.9c0.2,0.2,0.4,0.4,0.6,0.6
		c2,2.1,4.5,3.1,7.4,3.1c2.4,0,4.5-0.7,6.4-2.2v0.2c0,0.6,0.2,1.1,0.6,1.5c0.4,0.4,0.9,0.6,1.5,0.6c0.2,0,0.4,0,0.6-0.1
		c0.3-0.1,0.6-0.3,0.9-0.5c0.4-0.4,0.6-0.9,0.6-1.5V13.8c0,0,0,0,0-0.1C181.3,13.2,181.1,12.7,180.7,12.3z M175.3,34.1
		c-1.2,1.3-2.8,1.9-4.5,1.9c-1.8,0-3.3-0.6-4.5-1.9c-1.3-1.3-1.9-2.8-1.9-4.6c0-1.8,0.6-3.4,1.9-4.7c1.2-1.3,2.8-1.9,4.5-1.9
		s3.3,0.6,4.5,1.9c1.3,1.3,1.9,2.8,1.9,4.7C177.2,31.2,176.5,32.8,175.3,34.1z"/>
	<path d="M195.1,18.7c-0.1,0-0.3,0-0.4,0c0,0-0.1,0-0.1,0c-2.1,0-4,0.7-5.6,2c0-0.5-0.2-1-0.6-1.4c-0.4-0.4-0.9-0.6-1.5-0.6
		c-0.2,0-0.4,0-0.6,0.1c-0.3,0.1-0.6,0.3-0.9,0.5c-0.4,0.4-0.6,0.9-0.6,1.5v17.3c0,0.6,0.2,1.1,0.6,1.5c0.3,0.3,0.6,0.4,0.9,0.5
		c0.2,0.1,0.4,0.1,0.6,0.1c0.6,0,1-0.2,1.5-0.6c0.4-0.4,0.6-0.9,0.6-1.5v-8.6c0-1.8,0.6-3.4,1.7-4.7c1.1-1.3,2.5-1.9,4-1.9
		c0.1,0,0.3,0,0.4,0c0.4-0.1,0.8-0.3,1.1-0.6c0.1-0.1,0.2-0.3,0.3-0.4c0.2-0.3,0.3-0.7,0.3-1c0-0.6-0.2-1.1-0.6-1.5
		C195.8,19,195.5,18.8,195.1,18.7z"/>
	<path d="M204.6,13.7c-0.1-0.2-0.1-0.5-0.3-0.7c-0.2-0.4-0.6-0.7-1-0.9c-0.8-0.4-1.7-0.4-2.5,0c-0.4,0.2-0.7,0.5-1,1
		c-0.1,0.2-0.2,0.5-0.3,0.7c0,0.2-0.1,0.4-0.1,0.6c0,0.4,0.1,0.9,0.3,1.3c0.2,0.4,0.5,0.7,0.9,0.9c0.3,0.2,0.6,0.2,0.9,0.3
		c0.1,0,0.3,0.1,0.4,0.1c0.1,0,0.3,0,0.4-0.1c0.3,0,0.6-0.1,0.9-0.3c0.4-0.2,0.7-0.5,0.9-0.9c0.2-0.4,0.3-0.8,0.3-1.3
		C204.7,14.1,204.6,13.9,204.6,13.7C204.6,13.7,204.6,13.7,204.6,13.7z"/>
	<path d="M202.5,18.7c-0.1,0-0.3,0-0.4,0s-0.3,0-0.4,0c-0.4,0.1-0.8,0.3-1.1,0.6c-0.4,0.4-0.6,0.9-0.6,1.5v1v16.2
		c0,0.6,0.2,1.1,0.6,1.5c0.3,0.3,0.7,0.5,1.1,0.6c0.1,0,0.3,0,0.4,0s0.3,0,0.4,0c0.4-0.1,0.8-0.3,1.1-0.6c0.4-0.4,0.6-0.9,0.6-1.5
		V21.8v-1c0-0.6-0.2-1.1-0.6-1.5C203.3,19,202.9,18.8,202.5,18.7z"/>
	<path d="M155.2,22.5c-0.2-0.2-0.4-0.5-0.6-0.7c-2.1-2.1-4.7-3.1-7.6-3.1c-1.5,0-2.9,0.3-4.2,0.9c-1.3,0.5-2.4,1.3-3.4,2.3
		c-0.2,0.2-0.4,0.4-0.5,0.6c-1.7,2-2.6,4.3-2.6,7c0,1.4,0.3,2.8,0.9,4.2c0.4,1,1,2,1.8,2.8c0.2,0.2,0.3,0.4,0.5,0.6
		c2.1,2.1,4.7,3.1,7.6,3.1c3.3,0,6-1,8-2.9c0,0,0,0,0,0c0.1-0.1,0.1-0.1,0.2-0.2c0.3-0.4,0.5-0.9,0.4-1.4c0-0.4-0.2-0.8-0.4-1.1
		c-0.1-0.1-0.2-0.2-0.3-0.3c-0.4-0.4-0.9-0.5-1.5-0.5c-0.4,0-0.9,0.3-1.2,0.5c0,0,0,0,0,0c-1.3,1.2-3,1.8-5.2,1.8
		c-1.5,0-2.9-0.5-4.1-1.4c-1.1-0.8-1.8-1.9-2.2-3.1h14.5h0.5c0.6,0,1.1-0.2,1.5-0.6c0.4-0.4,0.6-0.9,0.6-1.5c0-1.4-0.3-2.9-0.9-4.2
		C156.5,24.3,155.9,23.4,155.2,22.5z M140.7,27.4c0.4-1.2,1.1-2.3,2.2-3.1c1.2-0.9,2.6-1.4,4.1-1.4c1.5,0,2.9,0.5,4.1,1.4
		c1.1,0.8,1.8,1.9,2.2,3.1H140.7z"/>
	<path d="M226,19.6c-0.2-0.3-0.5-0.6-0.9-0.7c-0.5-0.2-1.1-0.2-1.6,0c-0.5,0.2-0.9,0.6-1.1,1.1l-5.4,12.8L211.5,20
		c-0.2-0.5-0.6-0.9-1.1-1.1c-0.2-0.1-0.4-0.1-0.7-0.1c-0.2,0-0.3,0-0.5,0c-0.1,0-0.3,0.1-0.4,0.1c-0.5,0.2-0.9,0.6-1.1,1.1
		c-0.1,0.2-0.2,0.5-0.2,0.8c0,0.3,0.1,0.5,0.2,0.8l0.1,0.2l1.4,3.3l5.9,13.7c0.3,0.8,1,1.2,1.9,1.2c0.9,0,1.6-0.4,1.9-1.2L226,22
		l0.2-0.4c0.1-0.3,0.2-0.5,0.2-0.8c0-0.3-0.1-0.5-0.2-0.8C226.2,19.9,226.1,19.7,226,19.6z"/>
	<path d="M248.3,29.5c0-1.4-0.3-2.9-0.9-4.2c-0.5-1.3-1.3-2.4-2.3-3.4c-2.1-2.1-4.7-3.1-7.6-3.1c-1.5,0-2.9,0.3-4.2,0.9
		c-0.7,0.3-1.4,0.7-2,1.1c-0.5,0.4-1,0.8-1.5,1.2c-2.1,2.1-3.1,4.6-3.1,7.6c0,1.4,0.3,2.8,0.9,4.2c0.5,1.3,1.3,2.4,2.3,3.4
		c0.5,0.5,1,0.9,1.5,1.2c1.8,1.3,3.9,1.9,6.2,1.9c3.3,0,6-1,8-2.9c0,0,0,0,0,0c0.4-0.4,0.7-1,0.6-1.6c0-0.5-0.3-1-0.7-1.4
		c-0.4-0.4-0.9-0.5-1.5-0.5c-0.4,0-0.9,0.2-1.2,0.5c0,0,0,0,0,0c-1.3,1.2-3,1.8-5.2,1.8c-1.5,0-2.9-0.5-4.1-1.4
		c-1-0.7-1.6-1.7-2.1-2.7v-0.4h14.9c0.6,0,1.1-0.2,1.5-0.6C248.1,30.5,248.3,30,248.3,29.5C248.3,29.5,248.3,29.5,248.3,29.5
		C248.3,29.5,248.3,29.5,248.3,29.5z M231.4,27.4V27c0.4-1.1,1.1-2,2-2.8c1.2-0.9,2.6-1.4,4.1-1.4c1.5,0,2.9,0.5,4.1,1.4
		c1.1,0.8,1.8,1.9,2.2,3.1H231.4z"/>
	<path d="M59.2,11.8h-5.6C48.4,4.6,40.2,0.4,31.4,0.4C25.8,0.4,20.6,2,16,5.1c0,0,0,0,0,0l-5.2,3.2c-0.7,0.4-1.5,0.6-2.3,0.6
		c-1.7,0-3.3-0.9-4.2-2.4c-0.4-0.7-1.2-1.1-2-1.1c0,0-0.1,0-0.1,0C1,5.3,0,6.3,0,7.5c0,0,0,0,0,0v14.7c0,0,0,0,0,0
		c0,5.4,4.2,9.9,9.5,10.4c1,4.4,4.9,7.7,9.6,7.7c4.7,0,8.6-3.3,9.6-7.7h11.8c1,4.4,4.9,7.7,9.6,7.7c4.7,0,8.6-3.3,9.6-7.7
		c5.5-0.3,9.8-4.9,9.8-10.4C69.6,16.5,64.9,11.8,59.2,11.8z M19.1,36c-3,0-5.5-2.5-5.5-5.5c0-3,2.5-5.5,5.5-5.5c3,0,5.5,2.5,5.5,5.5
		C24.6,33.5,22.1,36,19.1,36z M50.2,36c-3,0-5.5-2.5-5.5-5.5c0-3,2.5-5.5,5.5-5.5c3,0,5.5,2.5,5.5,5.5C55.7,33.5,53.2,36,50.2,36z
		 M59.8,28.3c-1-4.4-4.9-7.7-9.6-7.7c-4.7,0-8.6,3.3-9.6,7.7H28.7c-1-4.4-4.9-7.7-9.6-7.7c-4.7,0-8.6,3.3-9.6,7.6
		c-2.9-0.5-5.1-3-5.1-6v-10c1.3,0.6,2.7,1,4.1,1c1.5,0,3.1-0.4,4.4-1.1c0,0,0.1,0,0.1,0l3.7-2.3c0.3-0.1,0.5-0.2,0.7-0.4
		c4-3,8.8-4.6,13.9-4.6c6.5,0,12.5,2.7,16.8,7.3l-29.1,4.3l31-0.2c0,0,0,0,0,0h9c3.4,0,6.1,2.7,6.1,6.1C65.3,25.4,62.9,28,59.8,28.3
		z"/>
	<path d="M48.6,46.1c-4.1,3.1-8.9,4.7-14,4.7c-5.1,0-9.9-1.6-14-4.7c-1-0.7-2.3-0.6-3.1,0.4c-0.7,1-0.6,2.3,0.4,3.1
		c4.8,3.7,10.6,5.6,16.7,5.6c6.1,0,11.8-2,16.7-5.6c1-0.7,1.1-2.1,0.4-3.1C51,45.6,49.6,45.4,48.6,46.1z"/>
</g>
</svg>
